<?xml version="1.0" encoding="UTF-8" standalone="no"?>
<svg
   xmlns:dc="http://purl.org/dc/elements/1.1/"
   xmlns:cc="http://creativecommons.org/ns#"
   xmlns:rdf="http://www.w3.org/1999/02/22-rdf-syntax-ns#"
   xmlns:svg="http://www.w3.org/2000/svg"
   xmlns="http://www.w3.org/2000/svg"
   xmlns:sodipodi="http://sodipodi.sourceforge.net/DTD/sodipodi-0.dtd"
   xmlns:inkscape="http://www.inkscape.org/namespaces/inkscape"
   viewBox="0 0 20000 14115"
   version="1.1"
   id="svg12"
   sodipodi:docname="HTML5.svg"
   width="20000"
   height="14115"
   inkscape:version="1.0.2-2 (e86c870879, 2021-01-15)"
   inkscape:export-filename="C:\Users\Reimo-LAP\Documents\Projektide IT osa\Costlio\costlio_templano\assets\images\partners\HTML5.png"
   inkscape:export-xdpi="96"
   inkscape:export-ydpi="96">
  <metadata
     id="metadata18">
    <rdf:RDF>
      <cc:Work
         rdf:about="">
        <dc:format>image/svg+xml</dc:format>
        <dc:type
           rdf:resource="http://purl.org/dc/dcmitype/StillImage" />
        <dc:title></dc:title>
      </cc:Work>
    </rdf:RDF>
  </metadata>
  <defs
     id="defs16" />
  <sodipodi:namedview
     pagecolor="#ffffff"
     bordercolor="#666666"
     borderopacity="1"
     objecttolerance="10"
     gridtolerance="10"
     guidetolerance="10"
     inkscape:pageopacity="0"
     inkscape:pageshadow="2"
     inkscape:window-width="1920"
     inkscape:window-height="1017"
     id="namedview14"
     showgrid="false"
     inkscape:zoom="0.030109812"
     inkscape:cx="19416.201"
     inkscape:cy="4005.6081"
     inkscape:window-x="-8"
     inkscape:window-y="-8"
     inkscape:window-maximized="1"
     inkscape:current-layer="svg12" />
  <path
     fill="#e44d26"
     d="m 18487.929,11884.012 -4095,1135 -4084,-1134 -909.9996,-10207.0002 h 9999.9996"
     id="path2" />
  <path
     fill="#f16529"
     d="m 18486.929,2512.0118 h -4088 v 9639.0002 l 3309,-917"
     id="path4" />
  <path
     d="m 17530.929,3764.0118 h -3136 v 1252 h 3024 m -113,1282 h -2911 v 4555.0002 l 2567,-712 m -2567,-2591.0002 h 1543 l -145,1624 -1398,377"
     fill="#ffffff"
     id="path6" />
  <path
     d="m 11596.929,7550.0118 h 2801 v -1252 h -1657 l -114,-1282 h 1771 v -1252 h -3139 m 569,6378.0002 2567,711 4,-1 V 9550.0118 l -4,1 -1396,-376 -89,-999 h -1257"
     fill="#ebebeb"
     id="path8" />
  <path
     d="m 1816.8823,5729.0294 v 629 h -582 v -629 m -635.99999,0 v 1903 h 635.99999 v -637 h 582 v 637 h 636 v -1903 m 276,0 v 631 h 1 560 v 1272 h 636 v -1272 h 560 v -631 m 1757,0 -407,669 -408,-669 m -663,0 v 1903 h 622 v -943 l 438,677 h 11 l 438,-677 v 943 h 633 v -1903 m 317,0 v 1903 h 1531 v -629 h -895 v -1274"
     id="path10" />
</svg>
