<svg id="Layer_1" data-name="Layer 1" xmlns="http://www.w3.org/2000/svg" viewBox="0 0 296.19 60"><defs><style>.cls-1{fill:#9c5c8e;}.cls-1,.cls-2,.cls-3{fill-rule:evenodd;}.cls-2{fill:#fff;}</style></defs><title>woocommerce</title><path class="cls-1" d="M.76,6.37A9.4,9.4,0,0,1,9.27.59H91.2a9.39,9.39,0,0,1,9.49,9.3V41.61a9.4,9.4,0,0,1-8.89,9.08H61.92q2,5,4,9.9c-5.92-3.27-11.8-6.66-17.76-9.85-13.11-.12-26.22,0-39.35-.07A9.37,9.37,0,0,1,0,41.62V10.88A10.53,10.53,0,0,1,.76,6.37Z"/><path class="cls-2" d="M40.82,7.1a3.62,3.62,0,0,1,5.1.23,3.66,3.66,0,0,1,.38.5,3.48,3.48,0,0,1,.18,3.24c-2.11,4.14-3,8.76-3.8,13.29a85.12,85.12,0,0,0-1.42,17.89c.08,1.52-.66,3.38-2.32,3.73A4.25,4.25,0,0,1,35,44.21c-4.47-4.79-6.94-11-8.81-17.2-1.84,3.63-3.69,7.26-5.47,10.92a26.07,26.07,0,0,1-4.56,6.94c-.85.84-2.31,1.59-3.36.73-1.62-1.4-2-3.68-2.72-5.67C7.47,30.85,6,21.5,4.44,12.16a3.47,3.47,0,0,1,1.85-4,4,4,0,0,1,3.92.39,4.24,4.24,0,0,1,1.09,2.63c1.07,7.21,2.31,14.4,4.09,21.48L24.32,15.7a5.57,5.57,0,0,1,1.78-2.19,2.91,2.91,0,0,1,3.61.34,5.74,5.74,0,0,1,1.22,2.94,77.18,77.18,0,0,0,3.8,13.77c.76-6.69,1.68-13.46,4.12-19.77A15.28,15.28,0,0,1,40.78,7.1Zm16.76,3.58a10.35,10.35,0,0,1,8.87,3.11,13.7,13.7,0,0,1,3.12,7.29,22.34,22.34,0,0,1-2.44,13.26A14.58,14.58,0,0,1,62,40.13a10.52,10.52,0,0,1-11-.36A12,12,0,0,1,46.37,32c-1.16-6.77.85-14.32,6-19a9.94,9.94,0,0,1,5.24-2.31Zm.68,6.94a6.94,6.94,0,0,0-3.35,3.24,12.32,12.32,0,0,0-1,11.41,3.49,3.49,0,0,0,2.32,2.17,4.1,4.1,0,0,0,3.15-1.16,11.12,11.12,0,0,0,3.29-6.48,10.76,10.76,0,0,0-1.35-8.1,2.62,2.62,0,0,0-3-1Zm25.08-6.94a10.31,10.31,0,0,1,8.75,2.91,13.56,13.56,0,0,1,3.32,7.83A22.22,22.22,0,0,1,93,34.22a14.57,14.57,0,0,1-5.23,6,10.51,10.51,0,0,1-10.58-.15,10.8,10.8,0,0,1-4.39-5.79,21.23,21.23,0,0,1,4.83-20.73A10.11,10.11,0,0,1,83.4,10.7ZM84,17.62c-1.69.6-2.7,2.21-3.58,3.67a12.26,12.26,0,0,0-.59,11.19,3.1,3.1,0,0,0,2.44,2,4.62,4.62,0,0,0,3.23-1.58,11.83,11.83,0,0,0,3.08-7.17,10.24,10.24,0,0,0-1.51-7.11,2.63,2.63,0,0,0-3-1Z"/><path class="cls-3" d="M117.7,11.62a18.93,18.93,0,0,1,8.34.1v6.7c-2.23-.54-4.73-1.05-6.94,0a7.81,7.81,0,0,0-4,7c-.15,2.79.79,5.91,3.27,7.49,2.31,1.5,5.18,1.16,7.67.46v6.69a16.21,16.21,0,0,1-10.14-.36,13.63,13.63,0,0,1-8.1-8.76,18.28,18.28,0,0,1-.29-9.26,13.78,13.78,0,0,1,10.22-10Zm20.12-.34a13.34,13.34,0,0,1,9.76,2.31,13,13,0,0,1,4.4,8.54,24.53,24.53,0,0,1-.73,10.57,11.23,11.23,0,0,1-5.65,6.86,14.24,14.24,0,0,1-9.15.74,10.22,10.22,0,0,1-6.65-5c-1.92-3.38-2.31-7.39-2.13-11.19a15.07,15.07,0,0,1,3.2-9.26,10.64,10.64,0,0,1,6.94-3.61Zm1,6.4a4.1,4.1,0,0,0-2.62,3.14,25,25,0,0,0-.42,8.18,7.31,7.31,0,0,0,1.39,4.23,3.71,3.71,0,0,0,5.24,0l.22-.25a7.42,7.42,0,0,0,1.26-3.69,26.09,26.09,0,0,0,0-6.95,7,7,0,0,0-1.63-3.84,3.58,3.58,0,0,0-3.47-.87ZM271,11.73a19.11,19.11,0,0,1,8.77,0c.07,2.25,0,4.48,0,6.72-2.18-.53-4.62-1-6.74-.08a7.65,7.65,0,0,0-4.16,6.41c-.3,3,.52,6.37,3.13,8.1,2.31,1.58,5.25,1.27,7.77.54,0,2.24.07,4.5,0,6.73a16.61,16.61,0,0,1-10.71-.66,13.68,13.68,0,0,1-7.63-8.82,18.22,18.22,0,0,1-.15-9.16A13.75,13.75,0,0,1,271,11.77ZM156.44,12H166c1.16,5.16,2.25,10.35,3.21,15.55.91-5.23,2.14-10.41,3.36-15.55h9.82L186.17,40h-7.5c-.69-6.41-1.31-12.82-2-19.22C175.12,27.2,173.51,33.59,172,40h-5.12c-1.64-6.41-3.25-12.84-4.89-19.25q-1,9.62-1.94,19.25h-7.17q1.8-14,3.59-28Zm34.29,0h9.57q1.74,7.74,3.19,15.53c.93-5.22,2.14-10.41,3.38-15.53h9.77L220.42,40h-7.48c-.7-6.41-1.35-12.82-2-19.23Q208.6,30.39,206.28,40h-5.11l-4.89-19.27c-.66,6.43-1.28,12.85-1.94,19.27h-7.21l3.58-28.05Zm31.82.09c5.12-.11,10.24,0,15.37,0v6h-7.74v5.12h6.7v5.79h-6.7V34H238v6H222.57V12ZM240.13,12h9.6a12.84,12.84,0,0,1,8.49,3,7.6,7.6,0,0,1,1.92,7.63,7.93,7.93,0,0,1-4.24,4.83c2,4.2,4,8.4,6,12.61h-8c-2.1-4.29-4.12-8.62-6.24-12.9V40h-7.58V12Zm7.52,5.39V24a7.57,7.57,0,0,0,4-1c1.34-1,1.15-3,.34-4.29C251,17.49,249.15,17.46,247.65,17.34ZM281.93,12h15.33v6h-7.78v5.12h6.71v5.79h-6.7V34h7.81v6H281.94V12Z"/></svg>