<svg id="Layer_1" data-name="Layer 1" xmlns="http://www.w3.org/2000/svg" viewBox="0 0 265.84 60"><defs><style>.cls-1{fill:#231f20;}.cls-2{fill:#fff;}</style></defs><title>wordpress</title><path class="cls-1" d="M29,0h2.18q10,0,19.43,8.12Q59.93,17.68,59.93,30q0,13.95-11.74,23.82A30.84,30.84,0,0,1,29.85,60Q17,60,7.35,49.79,0,40.67,0,31.23V28.94Q0,17.74,9.22,8.08a12.8,12.8,0,0,0,2.31-2Q20.22,0,29,0Z"/><path class="cls-2" d="M1.44,30q0,12.18,9.54,21.19a28.23,28.23,0,0,0,18.78,7.24h.33q13.05,0,22.28-11a27.86,27.86,0,0,0,6-17.34v-.33q0-11.2-8.35-20a28.44,28.44,0,0,0-20.2-8.35q-13.17,0-22.28,10.87A28.31,28.31,0,0,0,1.44,30Z"/><path class="cls-1" d="M6.37,19.43h.22L18.78,53h-.16a25.73,25.73,0,0,1-12-11.85A27.77,27.77,0,0,1,4.13,29.86,27.54,27.54,0,0,1,6.37,19.43Z"/><path class="cls-1" d="M30,4.17A25.23,25.23,0,0,1,47.37,11v.11L47,11Q44,11,42.76,14.71v1c0,1.47,1,3.73,3.07,6.8a13.74,13.74,0,0,1,1.54,6.37q0,2.86-2.74,10.65l-1.76,6c-.16,0-1.09-2.75-2.86-8.24L33.42,17.75h.12c2.55,0,3.84-.32,3.84-1v-.32a1.1,1.1,0,0,0-.78-.88l-7.13.32-7.25-.32a1.08,1.08,0,0,0-.54,1h-.11c0,.8,1.09,1.2,3.18,1.2l.55.11,3.91,11.08-5.6,16.8H23.5L14.17,17.89v-.1h.1c2.49,0,3.74-.3,3.74-.88v-.33a1.08,1.08,0,0,0-.77-1l-8.34.33H8.46V15.7A28,28,0,0,1,13.62,10,25.77,25.77,0,0,1,30,4.17Z"/><path class="cls-1" d="M30.31,32.06q.21,0,3.07,8.23l5.16,13.94h-.11a26.84,26.84,0,0,1-8.57,1.43,23.75,23.75,0,0,1-7.24-1.08Z"/><path class="cls-1" d="M52.32,17.57h.23A27.46,27.46,0,0,1,55.66,30q0,11.19-8.77,19.32a31.14,31.14,0,0,1-4,2.86h-.11V52.1l9-26.25a24.08,24.08,0,0,0,.78-5.6Z"/><path class="cls-1" d="M62.25,15.59h13v1.32h-.33c-2.17,0-3.26.61-3.26,1.87q0,1.08,3.73,12.18l.56,1.86H76l5.82-17.23H83l5.6,17.23h.1q4.5-13,4.51-14.13c0-1.18-1.09-1.76-3.27-1.76h-.32V15.59h11v1.32h-.48q-3.61,0-4.61,2.73-.64,1.23-7.47,22.18h-1L81.35,24h-.22L75.32,41.82h-1q-5.16-16.3-7.24-22.18a4.34,4.34,0,0,0-4.5-2.73h-.34Z"/><rect class="cls-1" x="66.98" y="45.56" width="198.82" height="0.88"/><path class="cls-1" d="M108.48,20.63a11.86,11.86,0,0,1,10.31,5.72,10,10,0,0,1,1.32,4.83,9.78,9.78,0,0,1-3.4,7.35,12,12,0,0,1-7.85,3.08h-1.09q-5.72,0-9.78-5.44a11.66,11.66,0,0,1-1.32-4.94q0-6.69,7.61-9.88A17.51,17.51,0,0,1,108.48,20.63Zm-7.23,10.48q0,6.36,5.16,8.34l1.64.22h.56q5.15,0,6.8-5.92l.22-2.74q0-5.61-4.35-7.8a5.32,5.32,0,0,0-2.41-.55h-.77q-4.5,0-6.36,5.49Z"/><path class="cls-1" d="M121,21.41h9.61q7.13,0,8.34,4.17a2.92,2.92,0,0,1,.22,1.21v.66c0,2.48-1.75,4.21-5.28,5.15h-.11q5.83,6.91,8.57,6.92l.66.11h.66c1.9,0,2.86-1.17,2.86-3.51V27c0-2.84-.78-4.28-2.31-4.28l-1.43-.11v-1.2h9.55q10.21,0,12.41,6.58a15.69,15.69,0,0,1,.43,3.19q0,6.59-6.8,9a14.62,14.62,0,0,1-4.35.66H136.25q-.56-.44-5.6-6.92l-1-1.09h-.77V36q0,3.62,2.75,3.62h1V40.9H121V39.63h.91c1.75,0,2.63-.7,2.63-2.08.16,0,.22-.63.22-1.87V26.57c-.06-2.17-.4-3.26-1-3.26-.06-.37-1-.59-2.74-.66Zm7.9,1.87v7.61h2.86a3.15,3.15,0,0,0,2.85-2.18,4.1,4.1,0,0,0,.34-1.54,3.64,3.64,0,0,0-2.43-3.67L131,23.29Zm21.63,0V33.81c0,3.26.26,4.84.77,4.84a2.14,2.14,0,0,0,1.42.32h.56q7.11,0,7.13-7.9t-7.24-7.79Z"/><path class="cls-1" d="M166,15.59h11.2q8.34,0,10,5.27l.21,1.54v1.08c0,2-1.08,3.7-3.26,5.17a11.56,11.56,0,0,1-5.93,1.42h-3.27v4.31c0,2.7.56,4.34,1.66,4.82a8.89,8.89,0,0,0,2.85.44V40.9H166V39.63h.11c2,0,3.26-.44,3.74-1.32a11,11,0,0,0,.76-4.93V23.06q0-4.72-1.32-5.49a4.66,4.66,0,0,0-2.85-.66H166Zm8.89,2.17v10h3.63c2.55,0,4-1.58,4.27-4.72V22.7a4.53,4.53,0,0,0-3.62-4.83l-1.75-.11Z"/><path class="cls-1" d="M188.73,21.41h9.54q7.28,0,8.46,4.34l.11,1.21v.33c0,2.64-1.79,4.35-5.43,5.27q5.7,7,9.11,7c1.83,0,2.75-1.27,2.75-3.83V27.33c0-3-.67-4.5-2-4.5a6.94,6.94,0,0,0-1.87-.22v-1.2h17.24L227.1,27H226c-.44-2-.91-3-1.43-3-.37-.51-1.79-.76-4.28-.76h-3v6.36h1.33c2.27,0,3.41-.66,3.41-2l.11-1.44h1.21V35h-1.21c0-2.18-.59-3.19-1.76-3.19,0-.14-.62-.22-1.87-.22h-1.21v1.77c0,3.35.37,5,1.09,5,0,.29.77.48,2.31.55h1.32c2.56,0,4-.47,4.35-1.42l.87-2.17h.88l-.33,5.49H203.77q0-.24-6.38-8h-.87v.34c0,3.87.36,5.85,1.09,5.92,0,.3.65.48,2,.55h.77V40.9H188.72V39.63h.65A3,3,0,0,0,192,38.54a11.91,11.91,0,0,0,.44-3.51V27.22q0-4.5-2.18-4.5l-1.53-.11Zm7.79,1.87v7.61h3a3.07,3.07,0,0,0,2.75-2,2.74,2.74,0,0,0,.33-1.43v-.71c-.3-2.28-1.32-3.41-3.08-3.41l-.76-.11Z"/><path class="cls-1" d="M244.5,20.63v7h-1.33q-1-5.05-5-5.06c-2,.37-3,1.07-3,2.09v.43q0,2,5.94,4.29,5.15,2.41,5.15,5.93,0,4.35-5,6l-1.87.22h-.67a8.58,8.58,0,0,1-4.79-1.87,4.67,4.67,0,0,0-.88,1.87h-1.21V33.48h1.32c0,2.05,1.08,3.86,3.26,5.44a8.32,8.32,0,0,0,3.26.76c2.17-.28,3.19-1.16,3.19-2.63v-.22q0-2.41-7-5.16-4.06-2.18-4.06-5.6,0-3.74,4.35-5l1.54-.22h.43a7,7,0,0,1,4.35,1.42c.22,0,.48-.51.77-1.54Z"/><path class="cls-1" d="M262.4,20.63v7h-1.21c-.15,0-.3-.51-.45-1.55q-1.42-3.5-4.72-3.51c-2,.37-3,1.07-3,2.09v.43c0,1.33,1.83,2.68,5.49,4.07,3.74,1.69,5.6,3.73,5.6,6.15,0,2.9-1.69,4.91-5,6l-1.87.22h-.66a8.68,8.68,0,0,1-4.83-1.87h-.11a5.69,5.69,0,0,0-.77,1.87h-1.21V33.48H251v.11c0,2,1.09,3.73,3.26,5.28a8.32,8.32,0,0,0,3.26.76c2.18-.29,3.19-1.21,3.19-2.74s-2.18-3.37-6.59-5.06c-3-1.45-4.5-3.4-4.5-5.81V25.8q0-3.4,4.35-4.83l1.54-.22h.44a7,7,0,0,1,4.34,1.43c.15,0,.41-.51.78-1.55Z"/></svg>